<svg width="36" height="50" viewBox="0 0 36 50" fill="none" xmlns="http://www.w3.org/2000/svg">
<path d="M32.7461 3.89844H32.1113V2.23516C32.1103 1.63988 31.8733 1.0693 31.4522 0.648484C31.0312 0.22767 30.4605 -0.00904272 29.8652 -0.00976562L29.5723 -0.00976562C28.9768 -0.00904201 28.4059 0.227832 27.9848 0.648899C27.5638 1.06997 27.3269 1.64085 27.3262 2.23633V3.89961H24.2988V2.23516C24.2978 1.63988 24.0608 1.0693 23.6397 0.648484C23.2187 0.22767 22.648 -0.00904272 22.0527 -0.00976562L21.7598 -0.00976562C21.1643 -0.00904201 20.5934 0.227832 20.1723 0.648899C19.7513 1.06997 19.5144 1.64085 19.5137 2.23633V3.89961H16.4863V2.23516C16.4853 1.63988 16.2483 1.0693 15.8272 0.648484C15.4062 0.22767 14.8355 -0.00904272 14.2402 -0.00976562L13.9473 -0.00976562C13.3518 -0.00904201 12.7809 0.227832 12.3598 0.648899C11.9388 1.06997 11.7019 1.64085 11.7012 2.23633V3.89961H8.67383V2.23516C8.67279 1.63988 8.43578 1.0693 8.01475 0.648484C7.59372 0.22767 7.02301 -0.00904272 6.42773 -0.00976562L6.13477 -0.00976562C5.53929 -0.00904201 4.9684 0.227832 4.54734 0.648899C4.12627 1.06997 3.8894 1.64085 3.88867 2.23633V3.89961H3.25391C2.45129 3.90054 1.68181 4.21979 1.11428 4.78733C0.546743 5.35486 0.227493 6.12434 0.226562 6.92695V49.3098C0.227389 49.4905 0.299775 49.6636 0.427884 49.7911C0.555993 49.9186 0.729396 49.9902 0.910156 49.9902H35.0898C35.2711 49.9902 35.445 49.9182 35.5732 49.79C35.7014 49.6618 35.7734 49.4879 35.7734 49.3066V6.92578C35.7725 6.12317 35.4533 5.35369 34.8857 4.78615C34.3182 4.21862 33.5487 3.89937 32.7461 3.89844ZM28.6934 2.23516C28.6937 2.00215 28.7864 1.77878 28.9511 1.61402C29.1159 1.44926 29.3393 1.35656 29.5723 1.35625H29.8652C30.0982 1.35656 30.3216 1.44926 30.4864 1.61402C30.6511 1.77878 30.7438 2.00215 30.7441 2.23516V7.86641H28.6934V2.23516ZM20.8809 2.23516C20.8812 2.00215 20.9739 1.77878 21.1386 1.61402C21.3034 1.44926 21.5268 1.35656 21.7598 1.35625H22.0527C22.2857 1.35656 22.5091 1.44926 22.6739 1.61402C22.8386 1.77878 22.9313 2.00215 22.9316 2.23516V7.86641H20.8809V2.23516ZM13.0684 2.23516C13.0687 2.00215 13.1614 1.77878 13.3261 1.61402C13.4909 1.44926 13.7143 1.35656 13.9473 1.35625H14.2402C14.4732 1.35656 14.6966 1.44926 14.8614 1.61402C15.0261 1.77878 15.1188 2.00215 15.1191 2.23516V7.86641H13.0684V2.23516ZM5.25586 2.23516C5.25617 2.00215 5.34887 1.77878 5.51363 1.61402C5.67839 1.44926 5.90176 1.35656 6.13477 1.35625H6.42773C6.66074 1.35656 6.88411 1.44926 7.04887 1.61402C7.21363 1.77878 7.30633 2.00215 7.30664 2.23516V7.86641H5.25586V2.23516ZM1.59375 6.92578C1.59427 6.48564 1.76934 6.06367 2.08057 5.75244C2.3918 5.44122 2.81376 5.26614 3.25391 5.26562H3.88867V8.55C3.88867 8.7313 3.96069 8.90518 4.08889 9.03337C4.21709 9.16157 4.39097 9.23359 4.57227 9.23359H7.99023C8.17153 9.23359 8.34541 9.16157 8.47361 9.03337C8.60181 8.90518 8.67383 8.7313 8.67383 8.55V5.26562H11.7012V8.55C11.7012 8.7313 11.7732 8.90518 11.9014 9.03337C12.0296 9.16157 12.2035 9.23359 12.3848 9.23359H15.8027C15.984 9.23359 16.1579 9.16157 16.2861 9.03337C16.4143 8.90518 16.4863 8.7313 16.4863 8.55V5.26562H19.5137V8.55C19.5137 8.7313 19.5857 8.90518 19.7139 9.03337C19.8421 9.16157 20.016 9.23359 20.1973 9.23359H23.6152C23.7965 9.23359 23.9704 9.16157 24.0986 9.03337C24.2268 8.90518 24.2988 8.7313 24.2988 8.55V5.26562H27.3262V8.55C27.3262 8.7313 27.3982 8.90518 27.5264 9.03337C27.6546 9.16157 27.8285 9.23359 28.0098 9.23359H31.4277C31.609 9.23359 31.7829 9.16157 31.9111 9.03337C32.0393 8.90518 32.1113 8.7313 32.1113 8.55V5.26562H32.7461C33.1862 5.26614 33.6082 5.44122 33.9194 5.75244C34.2307 6.06367 34.4057 6.48564 34.4062 6.92578V11.834H1.59375V6.92578ZM34.4062 48.623H1.59375V13.2012H34.4062V48.623Z" fill="#2BA84A"/>
<path d="M6.30352 19.8703L5.97657 21.7769C5.955 21.9027 5.96903 22.0319 6.01708 22.1501C6.06513 22.2682 6.14528 22.3706 6.24846 22.4456C6.35165 22.5205 6.47376 22.5652 6.60098 22.5744C6.7282 22.5836 6.85546 22.557 6.96836 22.4976L8.68126 21.5992L10.3938 22.4976C10.5067 22.557 10.6339 22.5836 10.7611 22.5744C10.8884 22.5652 11.0105 22.5205 11.1137 22.4456C11.2168 22.3706 11.297 22.2682 11.345 22.1501C11.3931 22.0319 11.4071 21.9027 11.3856 21.7769L11.0586 19.8703L12.4441 18.5195C12.5355 18.4305 12.6001 18.3177 12.6307 18.1938C12.6612 18.07 12.6565 17.9401 12.6171 17.8187C12.5777 17.6974 12.5051 17.5896 12.4076 17.5074C12.3101 17.4251 12.1915 17.3718 12.0652 17.3535L10.1512 17.075L9.29415 15.3418C9.23771 15.2274 9.15038 15.131 9.04203 15.0636C8.93369 14.9963 8.80865 14.9606 8.68106 14.9606C8.55347 14.9606 8.42843 14.9963 8.32009 15.0636C8.21174 15.131 8.12441 15.2274 8.06797 15.3418L7.21172 17.0766L5.29766 17.3551C5.17143 17.3734 5.05284 17.4267 4.95531 17.5089C4.85778 17.5911 4.7852 17.699 4.74578 17.8203C4.70635 17.9416 4.70166 18.0715 4.73223 18.1954C4.7628 18.3192 4.82741 18.4321 4.91875 18.5211L6.30352 19.8703ZM7.76563 18.3762C7.87537 18.3604 7.9796 18.3181 8.06931 18.253C8.15902 18.1878 8.2315 18.1018 8.28047 18.0023L8.68321 17.1871L9.08516 18.0023C9.13416 18.1018 9.20665 18.1878 9.29635 18.2529C9.38606 18.3181 9.49028 18.3604 9.6 18.3762L10.4984 18.507L9.84727 19.1418C9.76822 19.2193 9.70915 19.3149 9.67513 19.4203C9.64111 19.5257 9.63316 19.6377 9.65196 19.7469L9.80586 20.643L9.00118 20.2199C8.90299 20.1685 8.79382 20.1417 8.68301 20.1417C8.5722 20.1417 8.46303 20.1685 8.36485 20.2199L7.56016 20.643L7.71368 19.7469C7.73257 19.6377 7.72467 19.5256 7.69065 19.4202C7.65663 19.3148 7.5975 19.2193 7.51836 19.1418L6.86407 18.5059L7.76563 18.3762Z" fill="#2BA84A"/>
<path d="M15.6227 19.8703L15.2957 21.7769C15.2741 21.9026 15.2882 22.0319 15.3362 22.15C15.3843 22.2682 15.4644 22.3706 15.5676 22.4455C15.6708 22.5205 15.7929 22.5651 15.9201 22.5743C16.0474 22.5835 16.1746 22.557 16.2875 22.4976L18 21.5976L19.7125 22.4961C19.8254 22.5554 19.9527 22.582 20.0799 22.5728C20.2071 22.5636 20.3292 22.519 20.4324 22.444C20.5356 22.369 20.6158 22.2666 20.6638 22.1485C20.7119 22.0303 20.7259 21.9011 20.7043 21.7754L20.3774 19.8687L21.7629 18.5179C21.8543 18.4289 21.9189 18.3161 21.9494 18.1922C21.98 18.0684 21.9753 17.9385 21.9359 17.8172C21.8965 17.6958 21.8239 17.588 21.7264 17.5058C21.6288 17.4235 21.5102 17.3703 21.384 17.3519L19.4699 17.0734L18.6129 15.3418C18.5565 15.2273 18.4693 15.131 18.3609 15.0636C18.2526 14.9962 18.1276 14.9604 18 14.9604C17.8724 14.9604 17.7474 14.9962 17.6391 15.0636C17.5308 15.131 17.4435 15.2273 17.3871 15.3418L16.5309 17.0765L14.6168 17.3551C14.4906 17.3734 14.372 17.4267 14.2745 17.5089C14.1769 17.5911 14.1044 17.699 14.0649 17.8203C14.0255 17.9416 14.0208 18.0715 14.0514 18.1954C14.082 18.3192 14.1466 18.432 14.2379 18.5211L15.6227 19.8703ZM17.0828 18.3761C17.1926 18.3604 17.2968 18.3181 17.3865 18.2529C17.4762 18.1878 17.5487 18.1018 17.5977 18.0023L18 17.1871L18.4024 18.0023C18.4513 18.1018 18.5238 18.1878 18.6135 18.2529C18.7032 18.3181 18.8075 18.3604 18.9172 18.3761L19.8156 18.507L19.1645 19.1418C19.0854 19.2193 19.0263 19.3149 18.9923 19.4203C18.9583 19.5257 18.9504 19.6377 18.9692 19.7468L19.1227 20.6429L18.3184 20.2199C18.2202 20.1683 18.1109 20.1414 18 20.1414C17.8891 20.1414 17.7799 20.1683 17.6817 20.2199L16.8774 20.6429L17.0309 19.7468C17.0497 19.6377 17.0417 19.5257 17.0077 19.4203C16.9737 19.3149 16.9146 19.2193 16.8356 19.1418L16.1832 18.5058L17.0828 18.3761Z" fill="#2BA84A"/>
<path d="M24.9414 19.8703L24.6144 21.7769C24.5928 21.9027 24.6069 22.0319 24.6549 22.1501C24.703 22.2682 24.7831 22.3706 24.8863 22.4456C24.9895 22.5205 25.1116 22.5652 25.2388 22.5744C25.366 22.5836 25.4933 22.557 25.6062 22.4976L27.3187 21.5992L29.0316 22.4976C29.1445 22.557 29.2718 22.5836 29.399 22.5744C29.5262 22.5652 29.6483 22.5205 29.7515 22.4456C29.8547 22.3706 29.9348 22.2682 29.9829 22.1501C30.0309 22.0319 30.045 21.9027 30.0234 21.7769L29.6964 19.8703L31.082 18.5195C31.1733 18.4305 31.2379 18.3177 31.2685 18.1938C31.2991 18.07 31.2944 17.9401 31.255 17.8187C31.2155 17.6974 31.143 17.5896 31.0454 17.5074C30.9479 17.4251 30.8293 17.3718 30.7031 17.3535L28.789 17.075L27.932 15.3418C27.8756 15.2274 27.7882 15.131 27.6799 15.0636C27.5715 14.9963 27.4465 14.9606 27.3189 14.9606C27.1913 14.9606 27.0663 14.9963 26.9579 15.0636C26.8496 15.131 26.7623 15.2274 26.7058 15.3418L25.8515 17.075L23.9375 17.3535C23.8112 17.3718 23.6926 17.4251 23.5951 17.5074C23.4976 17.5896 23.425 17.6974 23.3856 17.8187C23.3462 17.9401 23.3415 18.07 23.372 18.1938C23.4026 18.3177 23.4672 18.4305 23.5586 18.5195L24.9414 19.8703ZM26.4019 18.3762C26.5116 18.3604 26.6159 18.3181 26.7056 18.2529C26.7953 18.1878 26.8678 18.1018 26.9168 18.0023L27.3187 17.1871L27.7214 18.0023C27.7704 18.1018 27.8429 18.1878 27.9326 18.253C28.0223 18.3181 28.1266 18.3604 28.2363 18.3762L29.1347 18.507L28.4836 19.1418C28.4044 19.2193 28.3453 19.3148 28.3113 19.4202C28.2772 19.5256 28.2693 19.6377 28.2882 19.7469L28.4418 20.643L27.6371 20.2199C27.5389 20.1684 27.4298 20.1414 27.3189 20.1414C27.2081 20.1414 27.0989 20.1684 27.0007 20.2199L26.1961 20.643L26.35 19.7469C26.3688 19.6377 26.3608 19.5257 26.3268 19.4203C26.2928 19.3149 26.2337 19.2193 26.1546 19.1418L25.5023 18.5059L26.4019 18.3762Z" fill="#2BA84A"/>
<path d="M5.27228 26.8449H30.7277C30.909 26.8449 31.0829 26.7729 31.2111 26.6447C31.3393 26.5165 31.4113 26.3426 31.4113 26.1613C31.4113 25.98 31.3393 25.8061 31.2111 25.6779C31.0829 25.5497 30.909 25.4777 30.7277 25.4777H5.27228C5.09098 25.4777 4.9171 25.5497 4.7889 25.6779C4.66071 25.8061 4.58868 25.98 4.58868 26.1613C4.58868 26.3426 4.66071 26.5165 4.7889 26.6447C4.9171 26.7729 5.09098 26.8449 5.27228 26.8449Z" fill="#2BA84A"/>
<path d="M7.99023 29.7469C7.80893 29.7469 7.63506 29.8189 7.50686 29.9471C7.37866 30.0753 7.30664 30.2492 7.30664 30.4305C7.30664 30.6118 7.37866 30.7857 7.50686 30.9139C7.63506 31.0421 7.80893 31.1141 7.99023 31.1141H28.0098C28.1911 31.1141 28.3649 31.0421 28.4931 30.9139C28.6213 30.7857 28.6934 30.6118 28.6934 30.4305C28.6934 30.2492 28.6213 30.0753 28.4931 29.9471C28.3649 29.8189 28.1911 29.7469 28.0098 29.7469H7.99023Z" fill="#2BA84A"/>
<path d="M5.27228 35.3809H30.7277C30.909 35.3809 31.0829 35.3088 31.2111 35.1806C31.3393 35.0524 31.4113 34.8786 31.4113 34.6973C31.4113 34.516 31.3393 34.3421 31.2111 34.2139C31.0829 34.0857 30.909 34.0137 30.7277 34.0137H5.27228C5.09098 34.0137 4.9171 34.0857 4.7889 34.2139C4.66071 34.3421 4.58868 34.516 4.58868 34.6973C4.58868 34.8786 4.66071 35.0524 4.7889 35.1806C4.9171 35.3088 5.09098 35.3809 5.27228 35.3809Z" fill="#2BA84A"/>
<path d="M7.99023 38.284C7.80893 38.284 7.63506 38.356 7.50686 38.4842C7.37866 38.6124 7.30664 38.7863 7.30664 38.9676C7.30664 39.1489 7.37866 39.3228 7.50686 39.451C7.63506 39.5792 7.80893 39.6512 7.99023 39.6512H28.0098C28.1911 39.6512 28.3649 39.5792 28.4931 39.451C28.6213 39.3228 28.6934 39.1489 28.6934 38.9676C28.6934 38.7863 28.6213 38.6124 28.4931 38.4842C28.3649 38.356 28.1911 38.284 28.0098 38.284H7.99023Z" fill="#2BA84A"/>
<path d="M5.27228 43.9203H30.7277C30.909 43.9203 31.0829 43.8483 31.2111 43.7201C31.3393 43.5919 31.4113 43.418 31.4113 43.2367C31.4113 43.0554 31.3393 42.8815 31.2111 42.7533C31.0829 42.6251 30.909 42.5531 30.7277 42.5531H5.27228C5.18251 42.5531 5.09361 42.5708 5.01068 42.6051C4.92774 42.6395 4.85238 42.6898 4.7889 42.7533C4.72543 42.8168 4.67507 42.8922 4.64072 42.9751C4.60637 43.058 4.58868 43.1469 4.58868 43.2367C4.58868 43.3265 4.60637 43.4154 4.64072 43.4983C4.67507 43.5812 4.72543 43.6566 4.7889 43.7201C4.85238 43.7835 4.92774 43.8339 5.01068 43.8683C5.09361 43.9026 5.18251 43.9203 5.27228 43.9203Z" fill="#2BA84A"/>
</svg>
